<svg xmlns="http://www.w3.org/2000/svg" width="1000" height="1000" viewBox="0 0 1000 1000"><path d="M532.3 603.1c10.1-.2 11.3-15.4 0-16.1s-11.2 15.4 0 16.1zm0-101.8c10.1-.2 11.3-15.4 0-16.1s-11.2 15.4 0 16.1zm0 289.4c-10 .2-11.2 15.4 0 16.1s11.3-15.4 0-16.1zm0 101.8c-10 .2-11.2 15.4 0 16.1s11.3-15.4 0-16.1z"/><path d="M505.1 437.3V950c16.2-.2 32.3-1.1 48.1-2.7l30-491.3zm27.2 37.7c23.5.7 24.9 35.1 0 36.5-23.5-.7-24.8-35.1 0-36.5zm0 101.8c23.5.8 24.9 35.2 0 36.5-23.5-.7-24.8-35.1 0-36.5zm0 342c-23.5-.7-24.8-35.1 0-36.5 23.5.7 24.9 35.1 0 36.5zm0-101.8c-23.5-.8-24.8-35.2 0-36.5 23.5.7 24.9 35.1 0 36.5zm0-101.9c-23.5-.7-24.8-35.1 0-36.5 23.5.8 24.9 35.2 0 36.5z"/><path d="M532.3 688.8c-10 .3-11.2 15.4 0 16.2s11.3-15.5 0-16.2zM230.7 174.1l235.5 112.8-46.8 113.9-226-167.1 37.3-59.6z"/><path d="M185 240.2l231.2 170.9c.8.1 4.5 5.6 9.5.7 1.1-1.6.5-1 .7-1.3 2.2-5.2 44.5-108.2 44.5-108.2L494 426.6c1.2 1-2.7.8-10.2 2.9l-197.7 47.1-100-55.1-63.1-34.9c-6.3-33.8-13.2-78.7-36.3-143.5zM61.9 584.3c6.3-1.5 14-3.7 9.1-10.5l-5.3-5.2c20.2-10.5 20.4-6.6 10.5-25.2 8-1.9 13.5-5.2 7.1-12 7.2.3 7.7-7 3.1-10.4 21.2 3.4.6-22-1-29.3 3.2-.6 18.5-.1 20-3.1 6.1-7.1-12.9-14-16-17.4 13.8-4.9 4.3-11.2-2.6-15.3 11.6-9.7 4.3-10.8-1.6-17 3-4.5 6.8-8.5 2-12.2 8-9.9 8.2-12.5-3.2-16.4 4.3-6.6 6.5-9.5 5-12.3s-11-30.2-14.4-39.4c-.7-2.1-1.2-3.2-1.2-3.3 4.3-5.3 10.1-12.4.9-14.7 15.1-18.8-9.7-10.8-5.9-17 4.4-43.2 8.3-38.9-7.7-42.5 6.6-4.8 6.6-11-.2-12 8.5-7 17.3-10.9 8.1-17.5L50 236.8a5.2 5.2 0 0 0 5.4-6.2l19.8 11.1c.6.5 1.5 4.1 3 8 33.6 96.2 69.6 262.3-.7 353.7z"/><path d="M95.9 666.5l-12.8-53.8c46.4-57.5 50-141.4 41.1-213.8l158.7 87.5s.4.5 2.2.7a3.2 3.2 0 0 0 1.5-.2l120.1-28.5 1.8 31.5-29.3 20.3H188.3a5.3 5.3 0 0 0-4.9 3.6 7.7 7.7 0 0 0-.2 1.5V680a5.2 5.2 0 0 0 3.2 4.7l22.4 9.2 71.4 29.2 24.9 188.6-6.4-2.7C196.4 865.3 121.6 774.8 95.9 666.5z"/><path d="M375.7 580.3v96.3L284.9 714l-91.5-37.4V580s86.9 36.9 92.8 36.8c1.4-.3 88.3-36.2 89.5-36.5z"/><path d="M316 916c-10.6-79.9-22.9-173.3-22.9-172.9s-.1-1.2-.3-2.7l-2.3-17.6c-1.5.2 58.7-24.1 82.6-34.2 18.4-6.9 11.5-4.3 12.8-35.8V518.2c-2.4 1.3 20.7-14.5 23.3-16.4l27.3 444.3A509.1 509.1 0 0 1 316 916zm178.9-427.9c-26.8.7-46.8-3.5-39.3 8.7.7 3.3 37 .8 39.3 1.5V590c-26.8.6-46.8-3.6-39.3 8.7.7 3.2 37 .8 39.3 1.5v91.6c-26.8.7-46.8-3.6-39.3 8.7.7 3.2 37 .8 39.3 1.5v91.6c-26.8.7-46.8-3.5-39.3 8.7.7 3.2 37 .8 39.3 1.5v91.6c-26.8.7-46.8-3.5-39.3 8.7.7 3.3 37 .8 39.3 1.5V950c-16.2-.2-32.3-1.1-48.1-2.7l-30-491.3 78.1-18.7zm274.4-314l37.3 59.6-226 167.1-46.8-113.9 235.5-112.8z"/><path d="M505.9 426.9l23.2-124.6 43.4 105.6c.7 2.1 3 8.5 8.9 4.9s237.1-175.5 233.8-172.6l98.1 2.9c-16.4 45.4-28.9 97.2-36.1 143.4l-67.1 37c-43.8 24.2-98.2 54.3-96.3 53.1L514.2 429c-5.9-1.5-8.7-1.8-8.3-2.1zm57.6 519.2l27.3-444.3c28.7 20.3 22.7 14 23.3 20.2v155.9c-2.5 8.8 18.6 11.7 51.4 26.6l44.1 18.2S695.5 828.9 684 916a509.1 509.1 0 0 1-120.5 30.1z"/><path d="M806.6 580v96.6L715.1 714l-90.8-37.4v-96.3c22.7 8.7 68.1 28.9 91.3 36.7a6.5 6.5 0 0 0 1.6-.4z"/><path d="M701.3 909l-6.5 2.7c11.3-86.2 24.7-187.5 25.3-188.7l93.4-38.3c6.5-.7 2.1-32 3.3-64.1-.1-50.1.1-64.4-.1-106 .1-2.9-4.2-4.7-5-4.4s-191.5.1-190.9 0l-29.3-20.3c0 .1 1.8-31.5 1.8-31.5l120.1 28.5a3 3 0 0 0 1.9.1 5.8 5.8 0 0 0 1.9-.6l158.6-87.5c-8.3 74.3-6.5 152.1 40.4 213 .5.2-4 20.5-11.5 52.7C879.4 773.6 804.3 865 701.3 909z"/><path d="M939.5 269.1c-8.6 1.6-4.7 8.9-.2 12-13.6 2.5-12.1 3.9-11.1 12.7s2.9 24.9 3.5 30.3c.1 1.3.3 1.9.1 1.8-14.3 1.4-12.9 6.3-6.1 14.7-10.5 2.8-1.4 11.2.9 14.8-.1.1-.5 1.4-1.3 3.5l-14.4 39.4c-1.9 3.1 3.5 9 5.1 12-13.5 4.3-9.2 8.3-3.2 16.4-5.2 3.7.2 9.3 2.1 12.4-10 7.6-10.3 9.2-1.7 16.8-9.3 5.2-14.7 11.2-2.6 15.3-1.7 1.5-16.3 10.1-16.7 12.1-4.1 10.4 16 7 20.7 8.4-7.3 17.2-19.2 31.3-1 29.3-5.4 4.4-3 10.7 3.1 10.4-7.4 8 1.2 10.3 7.1 12-12.1 20.5-5.5 15.9 10.5 25.2-10.9 9.5-8 12.9 3.8 15.7l-15.6 19.1C860.4 522 881 384.3 910.4 284.9c4.3-13.8 9.6-31.8 14.6-43.3l19.6-11a5.3 5.3 0 0 0 5.4 6.2l-20.5 16.4c-7 6.2 6.7 12.4 10 15.9zM715.1 565.8c-10.1.3-11.2 15.5 0 16.2s11.2-15.5 0-16.2z"/><path d="M624.3 520.4v48.9l85.3 34.9 5.4 2.2c-2.6 1.3 91.4-37.4 91.6-37.4v-48.6zm90.8 71.8c-23.5-.8-24.9-35.2 0-36.6 23.5.8 24.9 35.2 0 36.6zm-430.2-26.4c-10.1.3-11.2 15.5 0 16.2s11.2-15.5 0-16.2z"/><path d="M193.4 520.4V569l91.5 37.4 90.8-37.1v-48.9zm91.5 71.8c-23.5-.8-24.9-35.2 0-36.6 23.5.8 24.9 35.2 0 36.6z"/></svg>