<svg xmlns="http://www.w3.org/2000/svg" width="1000" height="1000" viewBox="0 0 1000 1000"><path d="M522.1 689.2c-17 1-16.1 24.4 0 24.9s16-24.4 0-24.9zm0 18c-7.7-.5-6.9-10.9 0-11s6.9 10.8 0 11zm0-132.1c17-.9 16-24.4 0-24.9s-16.1 24.4 0 24.9zm0-18c7.6.5 6.9 10.9 0 11.1s-6.9-10.9 0-11.1zm0 62.6c-17 .9-16.1 24.4 0 24.9s16-24.4 0-24.9zm0 18c-7.7-.5-6.9-10.9 0-11s6.9 10.8 0 11zm0 121.1c-17 .9-16.1 24.4 0 24.9s16-24.4 0-24.9zm0 17.9c-7.7-.5-6.9-10.8 0-11s6.9 10.9 0 11zm124.8-216c17-1 16-24.5 0-25-17 1-16.1 24.5 0 25zm0-18c7.6.5 6.9 10.9 0 11s-6.9-10.9 0-11zm-293.8-7c-17 1-16 24.5 0 25s16.1-24.5 0-25zm0 18c-7.6-.5-6.9-10.9 0-11s6.9 10.9 0 11zm169-48.1c17-.9 16-24.4 0-24.9s-16.1 24.4 0 24.9zm0-18c7.6.5 6.9 10.9 0 11s-6.9-10.8 0-11z"/><path d="M500 50C251.5 50 50 251.5 50 500s201.5 450 450 450 450-201.5 450-450S748.5 50 500 50zM316.1 275.2l160.8 77.1L445 430 290.7 315.9zm-31.2 45.1L442.8 437c.5.1 3.1 3.9 6.5.6.7-1.2.3-.7.5-1l30.3-73.8s14.8 79.3 15.8 84.8c.8.7-1.9.5-7 2L354 481.8l-68.3-37.7-43.1-23.8c-4.3-23.1-9-53.7-24.8-97.9zm-84 235c4.3-1 9.5-2.6 6.2-7.2l-3.6-3.5c13.8-7.2 13.9-4.5 7.2-17.2 5.4-1.3 9.2-3.5 4.8-8.2 4.9.2 5.3-4.8 2.1-7.2 14.5 2.4.5-14.9-.7-19.9 2.2-.5 12.7-.1 13.7-2.2 4.1-4.8-8.8-9.5-10.9-11.8 9.4-3.3 2.9-7.6-1.8-10.4 7.9-6.7 2.9-7.5-1.1-11.7 2-3.1 4.6-5.8 1.4-8.3 5.4-6.8 5.5-8.6-2.2-11.2 2.9-4.5 4.4-6.5 3.4-8.4l-9.8-26.9-.8-2.2c2.9-3.6 6.8-8.5.6-10.1 10.2-12.8-6.7-7.3-4.1-11.6 3-29.5 5.7-26.6-5.2-29 4.5-3.3 4.5-7.5-.2-8.2 5.8-4.8 11.8-7.5 5.6-11.9L192.8 318a3.5 3.5 0 0 0 3.6-4.2s12.1 6.7 13.5 7.6 1.1 2.8 2.1 5.4c22.9 65.8 47.6 179.2-.4 241.5zM362.5 777c-69.8-29.9-120.9-91.7-138.4-165.5l-8.7-36.8c31.6-39.3 34.1-96.6 28.1-146 0 .1 107.2 59.2 108.3 59.8a3.5 3.5 0 0 0 1.5.4h1l82-19.5 1.2 21.6-20 13.8H287.2a3.4 3.4 0 0 0-3.3 2.5 3.6 3.6 0 0 0-.2 1v112.3a3.5 3.5 0 0 0 2.2 3.2l15.3 6.3 48.7 19.9L367 778.8zm-9.4-206.6l-62.4-25.6v-33.1h124.4V545zm62-17.8v65.7l-62 25.5-62.4-25.5v-65.9s59.3 25.2 63.3 25.1c1-.2 60.3-24.7 61.1-24.9zm-40.7 229.2c-7.2-54.6-15.7-118.3-15.6-118.1s-.1-.8-.3-1.9c-.5-3.5-1.4-10.9-1.6-11.9s40.1-16.5 56.5-23.4c12.5-4.7 7.8-2.9 8.7-24.4v-91.9c-1.7.8 14.1-9.9 15.9-11.2l18.7 303.3a345.8 345.8 0 0 1-82.3-20.5zm122.1-292.1c-18.3.4-31.9-2.5-26.8 5.9.5 2.2 25.3.5 26.8 1v62.6c-18.3.4-31.9-2.5-26.8 5.9.5 2.2 25.3.5 26.8 1v62.6c-18.3.4-31.9-2.4-26.8 5.9.5 2.2 25.3.6 26.8 1v62.6c-18.3.5-31.9-2.4-26.8 5.9.5 2.3 25.3.6 26.8 1.1v62.5c-18.3.5-31.9-2.4-26.8 6 .5 2.2 25.3.5 26.8 1V805a322.8 322.8 0 0 1-32.8-1.9l-20.5-335.4 53.3-12.7zm187.4-214.5l25.4 40.7L555 430l-31.9-77.7zM504 447.8c.7-3.2 15.9-85 15.9-85l29.6 72.1c.5 1.4 2 5.8 6.1 3.3s161.9-119.8 159.6-117.9l67 2.1c-11.2 30.9-19.7 66.3-24.7 97.9l-45.8 25.2-65.7 36.3-136.3-32.5c-4-1-6-1.3-5.7-1.5zm-.5 357.2V455l53.3 12.7-20.5 335.4a322.8 322.8 0 0 1-32.8 1.9zm39.8-2.7L562 499c19.6 13.8 15.5 9.6 15.9 13.8v106.4c-1.7 6 12.7 8 35.1 18.2l30.1 12.4-17.5 132a345.8 345.8 0 0 1-82.3 20.5zm41.6-284.8v-5.8h124.4v33.1c-.1 0-64.3 26.5-62.5 25.6l-3.7-1.5-58.2-23.9zm124.4 34.9v65.9l-62.4 25.5-62-25.5v-65.7c15.5 5.9 46.5 19.7 62.3 25a3.4 3.4 0 0 0 1.1-.3zm67 57.7C759 684.6 707.7 746.9 637.4 777l-4.4 1.8c7.7-58.8 16.8-128 17.3-128.8l63.8-26.1c4.4-.5 1.4-21.9 2.2-43.8 0-34.2.1-44 0-72.4 0-1.9-3-3.2-3.5-3H582.5l-20-13.8 1.2-21.6 82 19.5a2.1 2.1 0 0 0 1.3.1c1.2-.3 1.2-.5 1.3-.4 3.1-1.8 108.2-59.7 108.2-59.8-5.6 50.8-4.4 103.8 27.7 145.4.3.2-2.8 14.1-7.9 36zm23.8-270c-5.9 1.1-3.2 6.1-.2 8.2-9.2 1.7-8.2 2.7-7.6 8.7s2 16.9 2.4 20.7c.1.8.2 1.2.1 1.2-9.7.9-8.8 4.3-4.2 10-7.1 1.9-.9 7.7.6 10.1 0 .1-.3.9-.8 2.4l-9.9 26.9c-1.2 2.1 2.4 6.2 3.5 8.2-9.2 3-6.3 5.7-2.2 11.2-3.5 2.5.2 6.3 1.5 8.4-6.8 5.3-7.1 6.3-1.2 11.6-6.3 3.5-10 7.6-1.8 10.4-1.1 1-11.1 6.9-11.3 8.2-2.8 7.2 10.9 4.9 14.1 5.8-5 11.7-13.1 21.3-.7 19.9-3.7 3.1-2.1 7.4 2.1 7.2-5 5.4.8 7 4.8 8.2-8.2 13.9-3.7 10.9 7.2 17.2-7.4 6.4-5.5 8.8 2.6 10.7l-10.7 13c-42.3-55.5-28.2-149.5-8.2-217.4 2.9-9.4 6.5-21.7 9.9-29.6l13.5-7.5a3.6 3.6 0 0 0 3.6 4.2l-14 11.2c-4.8 4.3 4.6 8.5 6.9 10.9z"/></svg>