<svg xmlns="http://www.w3.org/2000/svg" width="1000" height="1000" viewBox="0 0 1000 1000"><path d="M406.1 452.7c17.3 0 27.1-12.4 27.1-27.2 0-24.7-16-34.6-34.6-34.6-21-.6-38.3 13.6-38.3 40.2v90.2a14.7 14.7 0 0 0-4.9-1.2 15 15 0 0 0-14.9 14.8c0 8.7 7.5 14.2 14.9 14.2 5.5 0 12.9-4.9 14.2-12.3 10.5 1.8 17.3 9.2 19.1 21-6.1 3.1-28.4 17.3-28.4 57.5s18.6 63 40.8 63 33.4-19.2 33.4-38.9V478h-.6c-19.8 0-27.8-11.1-27.8-25.3z"/><path d="M500 50C251.5 50 50 251.5 50 500s201.5 450 450 450 450-201.5 450-450S748.5 50 500 50zm-6.8 246.9h-.6v182.4c0 34 5.5 45.7 13 55.6-7.5 9.3-13 20.4-13 54.4V656c0 11.2 4.9 19.8 14.8 22.3-3.7 7.4-14.2 15.5-30.9 15.5-14.2 0-25.9-5-34-13.6-11.7 11.1-27.2 16.6-45.1 16.6-64.9 0-94.6-38.3-108.2-58.1 5.6-5.5 13-33.3 13-49.4 0-24.1-5.5-45.1-13-54.4 7.5-9.9 13-27.2 13-52.5 0-21-5.5-40.8-13-52 27.8-17.3 56.3-58.1 108.8-58.1a84.8 84.8 0 0 1 36.5 8.1V267.9c0-26-8.7-51.9-22.3-64.3 39.6 0 50.1 48.2 81 69.9a31.6 31.6 0 0 0 21 5.5c1.3 9.9-6.8 17.9-21 17.9zm118.1 399.9c-55.1 0-87.8-34.6-87.8-71.7 0-40.7 27.8-61.1 60.6-61.1 20.4 0 40.8 14.8 40.8 33.3 0 12.4-6.2 17.3-12.4 21.7-1.2-4.4-8-11.8-17.9-11.8-13.6 0-27.2 10.5-27.2 30.9s16 40.2 45.7 40.2 48.2-23.5 48.2-56.2c0-35.3-24.1-58.8-50-77.9-19.2-14.2-51.3-14.2-64.9-1.9-9.3-11.7-1.9-32.7 17.3-36.4-15.5-15.5-26.6-33.4-26.6-57.5 0-43.3 30.9-75.4 88.4-75.4 34.6 0 69.8 19.7 69.8 55.6 0 20.4-11.7 40.2-42 40.2-16.7 0-31.5-12.4-31.5-29.7 0-9.3 3.7-16.1 6.8-19.2 2.4 4.4 6.8 8.1 14.2 8.1a13.7 13.7 0 0 0 13.6-13.6c0-11.8-13.6-22.9-29.7-22.9-24.1 0-35.8 17.9-35.8 38.3 0 64.3 123 73 123 174.3 0 50.1-39.6 92.7-102.6 92.7z"/></svg>