<svg xmlns="http://www.w3.org/2000/svg" width="1000" height="1000" viewBox="0 0 1000 1000"><path d="M136.3 753.8c0-44-10.2-82.4-23.7-99.3 13.5-18 23.7-49.6 23.7-95.9 0-38.3-10.2-74.4-23.7-94.7 50.8-31.6 102.6-106 198.5-106a154.5 154.5 0 0 1 66.5 14.7V167.3c0-47.4-15.7-94.7-40.6-117.3 72.2 0 91.4 88 147.8 127.4 14.6 10.2 30.4 11.3 38.3 10.2 2.3 18-12.4 32.7-38.3 32.7h-1.1V553c0 62 10.1 83.5 23.6 101.5-13.5 16.9-23.6 37.2-23.6 99.3v121.8c0 20.3 9 36.1 27 40.6-6.7 13.5-25.9 28.2-56.4 28.2-25.9 0-47.3-9.1-62-24.9-21.4 20.4-49.6 30.5-82.3 30.5-118.4 0-172.6-69.9-197.4-106 10.2-10.2 23.7-60.9 23.7-90.2zm97-73.3c10.1 0 23.7-9.1 25.9-22.6 19.2 3.4 31.6 16.9 35 38.3-11.3 5.7-51.9 31.6-51.9 104.9s33.8 115.1 74.4 115.1 60.9-35 60.9-71.1V550.8h-1.1c-36.1 0-50.7-20.3-50.7-46.3 31.5 0 49.6-22.5 49.6-49.6 0-45.1-29.3-63.2-63.2-63.2-38.3-1.1-69.9 24.8-69.9 73.3v164.7c-3.4-1.1-5.6-2.3-9-2.3a27.5 27.5 0 0 0-27.1 27.1c0 15.8 13.5 26 27.1 26zm417.3 27c37.2 0 74.4 27.1 74.4 60.9 0 22.6-11.3 31.6-22.6 39.5-2.2-7.9-14.6-21.4-32.7-21.4-24.8 0-49.6 19.1-49.6 56.4s29.3 73.3 83.5 73.3 87.9-42.9 87.9-102.7c0-64.3-44-107.1-91.3-142.1-35-25.9-93.6-25.9-118.4-3.4-17-21.4-3.4-59.7 31.5-66.5-28.2-28.2-48.5-60.9-48.5-104.9 0-78.9 56.4-137.6 161.3-137.6 63.2 0 127.5 36.1 127.5 101.5 0 37.2-21.5 73.3-76.7 73.3-30.5 0-57.5-22.5-57.5-54.1 0-16.9 6.7-29.3 12.4-35 4.5 7.9 12.4 14.7 25.9 14.7s24.8-10.2 24.8-24.8c0-21.4-24.8-41.7-54.1-41.7-44 0-65.4 32.7-65.4 69.9 0 117.3 224.4 133.1 224.4 318 0 91.4-72.2 169.2-187.2 169.2C599.8 950 540 886.8 540 819.2c0-74.5 50.8-111.7 110.6-111.7z"/></svg>