<svg xmlns="http://www.w3.org/2000/svg"><symbol id="wordmark-circle" viewBox="0 0 1000 1000"><path d="M406.1 452.7c17.3 0 27.1-12.4 27.1-27.2 0-24.7-16-34.6-34.6-34.6-21-.6-38.3 13.6-38.3 40.2v90.2a14.7 14.7 0 0 0-4.9-1.2 15 15 0 0 0-14.9 14.8c0 8.7 7.5 14.2 14.9 14.2 5.5 0 12.9-4.9 14.2-12.3 10.5 1.8 17.3 9.2 19.1 21-6.1 3.1-28.4 17.3-28.4 57.5s18.6 63 40.8 63 33.4-19.2 33.4-38.9V478h-.6c-19.8 0-27.8-11.1-27.8-25.3z"/><path d="M500 50C251.5 50 50 251.5 50 500s201.5 450 450 450 450-201.5 450-450S748.5 50 500 50zm-6.8 246.9h-.6v182.4c0 34 5.5 45.7 13 55.6-7.5 9.3-13 20.4-13 54.4V656c0 11.2 4.9 19.8 14.8 22.3-3.7 7.4-14.2 15.5-30.9 15.5-14.2 0-25.9-5-34-13.6-11.7 11.1-27.2 16.6-45.1 16.6-64.9 0-94.6-38.3-108.2-58.1 5.6-5.5 13-33.3 13-49.4 0-24.1-5.5-45.1-13-54.4 7.5-9.9 13-27.2 13-52.5 0-21-5.5-40.8-13-52 27.8-17.3 56.3-58.1 108.8-58.1a84.8 84.8 0 0 1 36.5 8.1V267.9c0-26-8.7-51.9-22.3-64.3 39.6 0 50.1 48.2 81 69.9a31.6 31.6 0 0 0 21 5.5c1.3 9.9-6.8 17.9-21 17.9zm118.1 399.9c-55.1 0-87.8-34.6-87.8-71.7 0-40.7 27.8-61.1 60.6-61.1 20.4 0 40.8 14.8 40.8 33.3 0 12.4-6.2 17.3-12.4 21.7-1.2-4.4-8-11.8-17.9-11.8-13.6 0-27.2 10.5-27.2 30.9s16 40.2 45.7 40.2 48.2-23.5 48.2-56.2c0-35.3-24.1-58.8-50-77.9-19.2-14.2-51.3-14.2-64.9-1.9-9.3-11.7-1.9-32.7 17.3-36.4-15.5-15.5-26.6-33.4-26.6-57.5 0-43.3 30.9-75.4 88.4-75.4 34.6 0 69.8 19.7 69.8 55.6 0 20.4-11.7 40.2-42 40.2-16.7 0-31.5-12.4-31.5-29.7 0-9.3 3.7-16.1 6.8-19.2 2.4 4.4 6.8 8.1 14.2 8.1a13.7 13.7 0 0 0 13.6-13.6c0-11.8-13.6-22.9-29.7-22.9-24.1 0-35.8 17.9-35.8 38.3 0 64.3 123 73 123 174.3 0 50.1-39.6 92.7-102.6 92.7z"/></symbol><symbol id="vest-circle" viewBox="0 0 1000 1000"><path d="M522.1 689.2c-17 1-16.1 24.4 0 24.9s16-24.4 0-24.9zm0 18c-7.7-.5-6.9-10.9 0-11s6.9 10.8 0 11zm0-132.1c17-.9 16-24.4 0-24.9s-16.1 24.4 0 24.9zm0-18c7.6.5 6.9 10.9 0 11.1s-6.9-10.9 0-11.1zm0 62.6c-17 .9-16.1 24.4 0 24.9s16-24.4 0-24.9zm0 18c-7.7-.5-6.9-10.9 0-11s6.9 10.8 0 11zm0 121.1c-17 .9-16.1 24.4 0 24.9s16-24.4 0-24.9zm0 17.9c-7.7-.5-6.9-10.8 0-11s6.9 10.9 0 11zm124.8-216c17-1 16-24.5 0-25-17 1-16.1 24.5 0 25zm0-18c7.6.5 6.9 10.9 0 11s-6.9-10.9 0-11zm-293.8-7c-17 1-16 24.5 0 25s16.1-24.5 0-25zm0 18c-7.6-.5-6.9-10.9 0-11s6.9 10.9 0 11zm169-48.1c17-.9 16-24.4 0-24.9s-16.1 24.4 0 24.9zm0-18c7.6.5 6.9 10.9 0 11s-6.9-10.8 0-11z"/><path d="M500 50C251.5 50 50 251.5 50 500s201.5 450 450 450 450-201.5 450-450S748.5 50 500 50zM316.1 275.2l160.8 77.1L445 430 290.7 315.9zm-31.2 45.1L442.8 437c.5.1 3.1 3.9 6.5.6.7-1.2.3-.7.5-1l30.3-73.8s14.8 79.3 15.8 84.8c.8.7-1.9.5-7 2L354 481.8l-68.3-37.7-43.1-23.8c-4.3-23.1-9-53.7-24.8-97.9zm-84 235c4.3-1 9.5-2.6 6.2-7.2l-3.6-3.5c13.8-7.2 13.9-4.5 7.2-17.2 5.4-1.3 9.2-3.5 4.8-8.2 4.9.2 5.3-4.8 2.1-7.2 14.5 2.4.5-14.9-.7-19.9 2.2-.5 12.7-.1 13.7-2.2 4.1-4.8-8.8-9.5-10.9-11.8 9.4-3.3 2.9-7.6-1.8-10.4 7.9-6.7 2.9-7.5-1.1-11.7 2-3.1 4.6-5.8 1.4-8.3 5.4-6.8 5.5-8.6-2.2-11.2 2.9-4.5 4.4-6.5 3.4-8.4l-9.8-26.9-.8-2.2c2.9-3.6 6.8-8.5.6-10.1 10.2-12.8-6.7-7.3-4.1-11.6 3-29.5 5.7-26.6-5.2-29 4.5-3.3 4.5-7.5-.2-8.2 5.8-4.8 11.8-7.5 5.6-11.9L192.8 318a3.5 3.5 0 0 0 3.6-4.2s12.1 6.7 13.5 7.6 1.1 2.8 2.1 5.4c22.9 65.8 47.6 179.2-.4 241.5zM362.5 777c-69.8-29.9-120.9-91.7-138.4-165.5l-8.7-36.8c31.6-39.3 34.1-96.6 28.1-146 0 .1 107.2 59.2 108.3 59.8a3.5 3.5 0 0 0 1.5.4h1l82-19.5 1.2 21.6-20 13.8H287.2a3.4 3.4 0 0 0-3.3 2.5 3.6 3.6 0 0 0-.2 1v112.3a3.5 3.5 0 0 0 2.2 3.2l15.3 6.3 48.7 19.9L367 778.8zm-9.4-206.6l-62.4-25.6v-33.1h124.4V545zm62-17.8v65.7l-62 25.5-62.4-25.5v-65.9s59.3 25.2 63.3 25.1c1-.2 60.3-24.7 61.1-24.9zm-40.7 229.2c-7.2-54.6-15.7-118.3-15.6-118.1s-.1-.8-.3-1.9c-.5-3.5-1.4-10.9-1.6-11.9s40.1-16.5 56.5-23.4c12.5-4.7 7.8-2.9 8.7-24.4v-91.9c-1.7.8 14.1-9.9 15.9-11.2l18.7 303.3a345.8 345.8 0 0 1-82.3-20.5zm122.1-292.1c-18.3.4-31.9-2.5-26.8 5.9.5 2.2 25.3.5 26.8 1v62.6c-18.3.4-31.9-2.5-26.8 5.9.5 2.2 25.3.5 26.8 1v62.6c-18.3.4-31.9-2.4-26.8 5.9.5 2.2 25.3.6 26.8 1v62.6c-18.3.5-31.9-2.4-26.8 5.9.5 2.3 25.3.6 26.8 1.1v62.5c-18.3.5-31.9-2.4-26.8 6 .5 2.2 25.3.5 26.8 1V805a322.8 322.8 0 0 1-32.8-1.9l-20.5-335.4 53.3-12.7zm187.4-214.5l25.4 40.7L555 430l-31.9-77.7zM504 447.8c.7-3.2 15.9-85 15.9-85l29.6 72.1c.5 1.4 2 5.8 6.1 3.3s161.9-119.8 159.6-117.9l67 2.1c-11.2 30.9-19.7 66.3-24.7 97.9l-45.8 25.2-65.7 36.3-136.3-32.5c-4-1-6-1.3-5.7-1.5zm-.5 357.2V455l53.3 12.7-20.5 335.4a322.8 322.8 0 0 1-32.8 1.9zm39.8-2.7L562 499c19.6 13.8 15.5 9.6 15.9 13.8v106.4c-1.7 6 12.7 8 35.1 18.2l30.1 12.4-17.5 132a345.8 345.8 0 0 1-82.3 20.5zm41.6-284.8v-5.8h124.4v33.1c-.1 0-64.3 26.5-62.5 25.6l-3.7-1.5-58.2-23.9zm124.4 34.9v65.9l-62.4 25.5-62-25.5v-65.7c15.5 5.9 46.5 19.7 62.3 25a3.4 3.4 0 0 0 1.1-.3zm67 57.7C759 684.6 707.7 746.9 637.4 777l-4.4 1.8c7.7-58.8 16.8-128 17.3-128.8l63.8-26.1c4.4-.5 1.4-21.9 2.2-43.8 0-34.2.1-44 0-72.4 0-1.9-3-3.2-3.5-3H582.5l-20-13.8 1.2-21.6 82 19.5a2.1 2.1 0 0 0 1.3.1c1.2-.3 1.2-.5 1.3-.4 3.1-1.8 108.2-59.7 108.2-59.8-5.6 50.8-4.4 103.8 27.7 145.4.3.2-2.8 14.1-7.9 36zm23.8-270c-5.9 1.1-3.2 6.1-.2 8.2-9.2 1.7-8.2 2.7-7.6 8.7s2 16.9 2.4 20.7c.1.8.2 1.2.1 1.2-9.7.9-8.8 4.3-4.2 10-7.1 1.9-.9 7.7.6 10.1 0 .1-.3.9-.8 2.4l-9.9 26.9c-1.2 2.1 2.4 6.2 3.5 8.2-9.2 3-6.3 5.7-2.2 11.2-3.5 2.5.2 6.3 1.5 8.4-6.8 5.3-7.1 6.3-1.2 11.6-6.3 3.5-10 7.6-1.8 10.4-1.1 1-11.1 6.9-11.3 8.2-2.8 7.2 10.9 4.9 14.1 5.8-5 11.7-13.1 21.3-.7 19.9-3.7 3.1-2.1 7.4 2.1 7.2-5 5.4.8 7 4.8 8.2-8.2 13.9-3.7 10.9 7.2 17.2-7.4 6.4-5.5 8.8 2.6 10.7l-10.7 13c-42.3-55.5-28.2-149.5-8.2-217.4 2.9-9.4 6.5-21.7 9.9-29.6l13.5-7.5a3.6 3.6 0 0 0 3.6 4.2l-14 11.2c-4.8 4.3 4.6 8.5 6.9 10.9z"/></symbol><symbol id="wordmark" viewBox="0 0 1000 1000"><path d="M136.3 753.8c0-44-10.2-82.4-23.7-99.3 13.5-18 23.7-49.6 23.7-95.9 0-38.3-10.2-74.4-23.7-94.7 50.8-31.6 102.6-106 198.5-106a154.5 154.5 0 0 1 66.5 14.7V167.3c0-47.4-15.7-94.7-40.6-117.3 72.2 0 91.4 88 147.8 127.4 14.6 10.2 30.4 11.3 38.3 10.2 2.3 18-12.4 32.7-38.3 32.7h-1.1V553c0 62 10.1 83.5 23.6 101.5-13.5 16.9-23.6 37.2-23.6 99.3v121.8c0 20.3 9 36.1 27 40.6-6.7 13.5-25.9 28.2-56.4 28.2-25.9 0-47.3-9.1-62-24.9-21.4 20.4-49.6 30.5-82.3 30.5-118.4 0-172.6-69.9-197.4-106 10.2-10.2 23.7-60.9 23.7-90.2zm97-73.3c10.1 0 23.7-9.1 25.9-22.6 19.2 3.4 31.6 16.9 35 38.3-11.3 5.7-51.9 31.6-51.9 104.9s33.8 115.1 74.4 115.1 60.9-35 60.9-71.1V550.8h-1.1c-36.1 0-50.7-20.3-50.7-46.3 31.5 0 49.6-22.5 49.6-49.6 0-45.1-29.3-63.2-63.2-63.2-38.3-1.1-69.9 24.8-69.9 73.3v164.7c-3.4-1.1-5.6-2.3-9-2.3a27.5 27.5 0 0 0-27.1 27.1c0 15.8 13.5 26 27.1 26zm417.3 27c37.2 0 74.4 27.1 74.4 60.9 0 22.6-11.3 31.6-22.6 39.5-2.2-7.9-14.6-21.4-32.7-21.4-24.8 0-49.6 19.1-49.6 56.4s29.3 73.3 83.5 73.3 87.9-42.9 87.9-102.7c0-64.3-44-107.1-91.3-142.1-35-25.9-93.6-25.9-118.4-3.4-17-21.4-3.4-59.7 31.5-66.5-28.2-28.2-48.5-60.9-48.5-104.9 0-78.9 56.4-137.6 161.3-137.6 63.2 0 127.5 36.1 127.5 101.5 0 37.2-21.5 73.3-76.7 73.3-30.5 0-57.5-22.5-57.5-54.1 0-16.9 6.7-29.3 12.4-35 4.5 7.9 12.4 14.7 25.9 14.7s24.8-10.2 24.8-24.8c0-21.4-24.8-41.7-54.1-41.7-44 0-65.4 32.7-65.4 69.9 0 117.3 224.4 133.1 224.4 318 0 91.4-72.2 169.2-187.2 169.2C599.8 950 540 886.8 540 819.2c0-74.5 50.8-111.7 110.6-111.7z"/></symbol><symbol id="vest" viewBox="0 0 1000 1000"><path d="M532.3 603.1c10.1-.2 11.3-15.4 0-16.1s-11.2 15.4 0 16.1zm0-101.8c10.1-.2 11.3-15.4 0-16.1s-11.2 15.4 0 16.1zm0 289.4c-10 .2-11.2 15.4 0 16.1s11.3-15.4 0-16.1zm0 101.8c-10 .2-11.2 15.4 0 16.1s11.3-15.4 0-16.1z"/><path d="M505.1 437.3V950c16.2-.2 32.3-1.1 48.1-2.7l30-491.3zm27.2 37.7c23.5.7 24.9 35.1 0 36.5-23.5-.7-24.8-35.1 0-36.5zm0 101.8c23.5.8 24.9 35.2 0 36.5-23.5-.7-24.8-35.1 0-36.5zm0 342c-23.5-.7-24.8-35.1 0-36.5 23.5.7 24.9 35.1 0 36.5zm0-101.8c-23.5-.8-24.8-35.2 0-36.5 23.5.7 24.9 35.1 0 36.5zm0-101.9c-23.5-.7-24.8-35.1 0-36.5 23.5.8 24.9 35.2 0 36.5z"/><path d="M532.3 688.8c-10 .3-11.2 15.4 0 16.2s11.3-15.5 0-16.2zM230.7 174.1l235.5 112.8-46.8 113.9-226-167.1 37.3-59.6z"/><path d="M185 240.2l231.2 170.9c.8.1 4.5 5.6 9.5.7 1.1-1.6.5-1 .7-1.3 2.2-5.2 44.5-108.2 44.5-108.2L494 426.6c1.2 1-2.7.8-10.2 2.9l-197.7 47.1-100-55.1-63.1-34.9c-6.3-33.8-13.2-78.7-36.3-143.5zM61.9 584.3c6.3-1.5 14-3.7 9.1-10.5l-5.3-5.2c20.2-10.5 20.4-6.6 10.5-25.2 8-1.9 13.5-5.2 7.1-12 7.2.3 7.7-7 3.1-10.4 21.2 3.4.6-22-1-29.3 3.2-.6 18.5-.1 20-3.1 6.1-7.1-12.9-14-16-17.4 13.8-4.9 4.3-11.2-2.6-15.3 11.6-9.7 4.3-10.8-1.6-17 3-4.5 6.8-8.5 2-12.2 8-9.9 8.2-12.5-3.2-16.4 4.3-6.6 6.5-9.5 5-12.3s-11-30.2-14.4-39.4c-.7-2.1-1.2-3.2-1.2-3.3 4.3-5.3 10.1-12.4.9-14.7 15.1-18.8-9.7-10.8-5.9-17 4.4-43.2 8.3-38.9-7.7-42.5 6.6-4.8 6.6-11-.2-12 8.5-7 17.3-10.9 8.1-17.5L50 236.8a5.2 5.2 0 0 0 5.4-6.2l19.8 11.1c.6.5 1.5 4.1 3 8 33.6 96.2 69.6 262.3-.7 353.7z"/><path d="M95.9 666.5l-12.8-53.8c46.4-57.5 50-141.4 41.1-213.8l158.7 87.5s.4.5 2.2.7a3.2 3.2 0 0 0 1.5-.2l120.1-28.5 1.8 31.5-29.3 20.3H188.3a5.3 5.3 0 0 0-4.9 3.6 7.7 7.7 0 0 0-.2 1.5V680a5.2 5.2 0 0 0 3.2 4.7l22.4 9.2 71.4 29.2 24.9 188.6-6.4-2.7C196.4 865.3 121.6 774.8 95.9 666.5z"/><path d="M375.7 580.3v96.3L284.9 714l-91.5-37.4V580s86.9 36.9 92.8 36.8c1.4-.3 88.3-36.2 89.5-36.5z"/><path d="M316 916c-10.6-79.9-22.9-173.3-22.9-172.9s-.1-1.2-.3-2.7l-2.3-17.6c-1.5.2 58.7-24.1 82.6-34.2 18.4-6.9 11.5-4.3 12.8-35.8V518.2c-2.4 1.3 20.7-14.5 23.3-16.4l27.3 444.3A509.1 509.1 0 0 1 316 916zm178.9-427.9c-26.8.7-46.8-3.5-39.3 8.7.7 3.3 37 .8 39.3 1.5V590c-26.8.6-46.8-3.6-39.3 8.7.7 3.2 37 .8 39.3 1.5v91.6c-26.8.7-46.8-3.6-39.3 8.7.7 3.2 37 .8 39.3 1.5v91.6c-26.8.7-46.8-3.5-39.3 8.7.7 3.2 37 .8 39.3 1.5v91.6c-26.8.7-46.8-3.5-39.3 8.7.7 3.3 37 .8 39.3 1.5V950c-16.2-.2-32.3-1.1-48.1-2.7l-30-491.3 78.1-18.7zm274.4-314l37.3 59.6-226 167.1-46.8-113.9 235.5-112.8z"/><path d="M505.9 426.9l23.2-124.6 43.4 105.6c.7 2.1 3 8.5 8.9 4.9s237.1-175.5 233.8-172.6l98.1 2.9c-16.4 45.4-28.9 97.2-36.1 143.4l-67.1 37c-43.8 24.2-98.2 54.3-96.3 53.1L514.2 429c-5.9-1.5-8.7-1.8-8.3-2.1zm57.6 519.2l27.3-444.3c28.7 20.3 22.7 14 23.3 20.2v155.9c-2.5 8.8 18.6 11.7 51.4 26.6l44.1 18.2S695.5 828.9 684 916a509.1 509.1 0 0 1-120.5 30.1z"/><path d="M806.6 580v96.6L715.1 714l-90.8-37.4v-96.3c22.7 8.7 68.1 28.9 91.3 36.7a6.5 6.5 0 0 0 1.6-.4z"/><path d="M701.3 909l-6.5 2.7c11.3-86.2 24.7-187.5 25.3-188.7l93.4-38.3c6.5-.7 2.1-32 3.3-64.1-.1-50.1.1-64.4-.1-106 .1-2.9-4.2-4.7-5-4.4s-191.5.1-190.9 0l-29.3-20.3c0 .1 1.8-31.5 1.8-31.5l120.1 28.5a3 3 0 0 0 1.9.1 5.8 5.8 0 0 0 1.9-.6l158.6-87.5c-8.3 74.3-6.5 152.1 40.4 213 .5.2-4 20.5-11.5 52.7C879.4 773.6 804.3 865 701.3 909z"/><path d="M939.5 269.1c-8.6 1.6-4.7 8.9-.2 12-13.6 2.5-12.1 3.9-11.1 12.7s2.9 24.9 3.5 30.3c.1 1.3.3 1.9.1 1.8-14.3 1.4-12.9 6.3-6.1 14.7-10.5 2.8-1.4 11.2.9 14.8-.1.1-.5 1.4-1.3 3.5l-14.4 39.4c-1.9 3.1 3.5 9 5.1 12-13.5 4.3-9.2 8.3-3.2 16.4-5.2 3.7.2 9.3 2.1 12.4-10 7.6-10.3 9.2-1.7 16.8-9.3 5.2-14.7 11.2-2.6 15.3-1.7 1.5-16.3 10.1-16.7 12.1-4.1 10.4 16 7 20.7 8.4-7.3 17.2-19.2 31.3-1 29.3-5.4 4.4-3 10.7 3.1 10.4-7.4 8 1.2 10.3 7.1 12-12.1 20.5-5.5 15.9 10.5 25.2-10.9 9.5-8 12.9 3.8 15.7l-15.6 19.1C860.4 522 881 384.3 910.4 284.9c4.3-13.8 9.6-31.8 14.6-43.3l19.6-11a5.3 5.3 0 0 0 5.4 6.2l-20.5 16.4c-7 6.2 6.7 12.4 10 15.9zM715.1 565.8c-10.1.3-11.2 15.5 0 16.2s11.2-15.5 0-16.2z"/><path d="M624.3 520.4v48.9l85.3 34.9 5.4 2.2c-2.6 1.3 91.4-37.4 91.6-37.4v-48.6zm90.8 71.8c-23.5-.8-24.9-35.2 0-36.6 23.5.8 24.9 35.2 0 36.6zm-430.2-26.4c-10.1.3-11.2 15.5 0 16.2s11.2-15.5 0-16.2z"/><path d="M193.4 520.4V569l91.5 37.4 90.8-37.1v-48.9zm91.5 71.8c-23.5-.8-24.9-35.2 0-36.6 23.5.8 24.9 35.2 0 36.6z"/></symbol></svg>