<svg xmlns="http://www.w3.org/2000/svg" width="600" height="600" viewBox="0 0 600 600"><title>logo-sm</title><g id="logos"><circle cx="300" cy="300" r="300" fill="#171919"/><path d="M168.1,359.5c0-16-3.7-30.1-8.6-36.2,4.9-6.6,8.6-18.2,8.6-35.1,0-14-3.7-27.2-8.6-34.6C178,242.1,197,214.9,232,214.9a56.8,56.8,0,0,1,24.3,5.4v-75c0-17.3-5.7-34.7-14.8-42.9,26.4,0,33.4,32.1,54,46.6a20.9,20.9,0,0,0,14,3.7c.8,6.6-4.6,11.9-14,11.9h-.4V286.2c0,22.6,3.7,30.5,8.6,37.1-4.9,6.1-8.6,13.6-8.6,36.2V404c0,7.4,3.3,13.2,9.8,14.9-2.4,4.9-9.4,10.3-20.6,10.3-9.4,0-17.3-3.3-22.6-9.1-7.8,7.4-18.1,11.1-30.1,11.1-43.3,0-63-25.5-72.1-38.7C163.2,388.8,168.1,370.2,168.1,359.5Zm35.5-26.8a10.5,10.5,0,0,0,9.5-8.2c7,1.2,11.5,6.2,12.7,14-4.1,2.1-18.9,11.6-18.9,38.3s12.3,42.1,27.2,42.1,22.2-12.8,22.2-26V285.4h-.4c-13.2,0-18.5-7.5-18.5-16.9,11.5,0,18.1-8.3,18.1-18.2,0-16.4-10.7-23-23.1-23-14-.5-25.5,9-25.5,26.7v60.2a10.6,10.6,0,0,0-3.3-.8,10,10,0,0,0-9.9,9.9C193.7,329,198.6,332.7,203.6,332.7Z" fill="#b07d45"/><path d="M356,342.6c13.6,0,27.2,9.9,27.2,22.3,0,8.2-4.1,11.5-8.2,14.4-.8-2.9-5.4-7.8-12-7.8-9,0-18.1,7-18.1,20.6s10.7,26.8,30.5,26.8,32.1-15.7,32.1-37.5c0-23.5-16-39.2-33.3-52-12.8-9.4-34.2-9.4-43.3-1.2-6.2-7.8-1.2-21.8,11.5-24.3-10.3-10.3-17.7-22.3-17.7-38.3,0-28.9,20.6-50.3,58.9-50.3,23.1,0,46.6,13.2,46.6,37.1,0,13.6-7.8,26.8-28,26.8-11.1,0-21-8.3-21-19.8,0-6.2,2.4-10.7,4.5-12.8a10.3,10.3,0,0,0,9.5,5.4,9.2,9.2,0,0,0,9.1-9.1c0-7.8-9.1-15.2-19.8-15.2-16.1,0-23.9,11.9-23.9,25.5,0,42.9,82,48.6,82,116.2,0,33.4-26.4,61.8-68.4,61.8-36.7,0-58.5-23-58.5-47.8C315.7,356.2,334.2,342.6,356,342.6Z" fill="#b07d45"/></g></svg>